<svg width="20" height="20" viewBox="0 0 20 20" fill="none" xmlns="http://www.w3.org/2000/svg">
<path d="M2.687 4.03L4.8 16.793C4.89665 17.3773 5.19759 17.9083 5.6492 18.2914C6.10081 18.6745 6.67377 18.8849 7.266 18.885H10.614M17.312 4.03L15.2 16.793C15.1033 17.3773 14.8024 17.9083 14.3508 18.2914C13.8992 18.6745 13.3262 18.8849 12.734 18.885H9.386M8.022 8.933V13.982M11.978 8.933V13.982M0.75 4.03H19.25M12.777 4.03V2.25C12.777 1.85218 12.619 1.47064 12.3377 1.18934C12.0564 0.908035 11.6748 0.75 11.277 0.75H8.723C8.32517 0.75 7.94364 0.908035 7.66234 1.18934C7.38104 1.47064 7.223 1.85218 7.223 2.25V4.03H12.777Z" stroke="white" stroke-width="1.5" stroke-linecap="round" stroke-linejoin="round"/>
</svg>
